<svg xmlns="http://www.w3.org/2000/svg" viewBox="0 0 612.002 612.002" width="512" height="512"><g fill="#F46F6E"><path d="M437.511 174.502c5.123 5.123 13.434 5.123 18.55 0L608.158 22.399c5.123-5.123 5.123-13.427 0-18.557-5.116-5.123-13.427-5.123-18.55 0L437.511 155.945c-5.129 5.123-5.129 13.434 0 18.557z"/><path d="M568.952 289.544l-16.681-183.418-45.792 45.792c2.663 17.002-2.525 35.002-15.625 48.101-21.771 21.771-57.075 21.778-78.846 0-21.771-21.771-21.771-57.081 0-78.852 13.099-13.099 31.086-18.281 48.082-15.625l45.805-45.805L322.47 43.055a24.451 24.451 0 0 0-19.482 7.058L7.152 345.949c-9.531 9.538-9.538 24.992 0 34.523l65.805 65.812 32.47-32.47 92.765 92.765-32.463 32.463 65.805 65.805c9.538 9.538 24.985 9.538 34.516 0l295.856-295.836a24.509 24.509 0 0 0 7.046-19.467z"/></g></svg>